<?xml version="1.0" encoding="UTF-8" standalone="yes"?>
<!DOCTYPE svg PUBLIC "-//W3C//DTD SVG 1.0//EN" "http://www.w3.org/TR/2001/REC-SVG-20010904/DTD/svg10.dtd">
<svg height="280" width="800" xmlns="http://www.w3.org/2000/svg" xmlns:svg="http://www.w3.org/2000/svg" xmlns:xlink="http://www.w3.org/1999/xlink">
	<rect height="280" rx="5" ry="5" style="fill: #eeeeee" width="800" x="0" y="0" />
	<g style="fill: #000000; font-family: sans-serif; font-size: 12px" transform="translate(10, 10)">
		<rect height="51" rx="5" ry="5" style="fill: #cccccc; stroke: #000000; stroke-width: 1" width="51" x="0.5" y="0.5" />
		<rect height="40" rx="3" ry="3" style="fill: #fcfcfc" width="39" x="6.5" y="3.5" />
		<text x="7.5" y="16.5">Esc</text>
		<rect height="51" rx="5" ry="5" style="fill: #cccccc; stroke: #000000; stroke-width: 1" width="51" x="52.5" y="0.5" />
		<rect height="40" rx="3" ry="3" style="fill: #fcfcfc" width="39" x="58.5" y="3.5" />
		<text x="59.5" y="16.5">!</text>
		<text x="59.5" y="35.5">1</text>
		<text style="text-anchor: end" x="97.5" y="35.5">F1</text>
		<rect height="51" rx="5" ry="5" style="fill: #cccccc; stroke: #000000; stroke-width: 1" width="51" x="104.5" y="0.5" />
		<rect height="40" rx="3" ry="3" style="fill: #fcfcfc" width="39" x="110.5" y="3.5" />
		<text x="111.5" y="16.5">@</text>
		<text x="111.5" y="35.5">2</text>
		<text style="text-anchor: end" x="149.5" y="35.5">F2</text>
		<rect height="51" rx="5" ry="5" style="fill: #cccccc; stroke: #000000; stroke-width: 1" width="51" x="156.5" y="0.5" />
		<rect height="40" rx="3" ry="3" style="fill: #fcfcfc" width="39" x="162.5" y="3.5" />
		<text x="163.5" y="16.5">#</text>
		<text x="163.5" y="35.5">3</text>
		<text style="text-anchor: end" x="201.5" y="35.5">F3</text>
		<rect height="51" rx="5" ry="5" style="fill: #cccccc; stroke: #000000; stroke-width: 1" width="51" x="208.5" y="0.5" />
		<rect height="40" rx="3" ry="3" style="fill: #fcfcfc" width="39" x="214.5" y="3.5" />
		<text x="215.5" y="16.5">$</text>
		<text x="215.5" y="35.5">4</text>
		<text style="text-anchor: end" x="253.5" y="35.5">F4</text>
		<rect height="51" rx="5" ry="5" style="fill: #cccccc; stroke: #000000; stroke-width: 1" width="51" x="260.5" y="0.5" />
		<rect height="40" rx="3" ry="3" style="fill: #fcfcfc" width="39" x="266.5" y="3.5" />
		<text x="267.5" y="16.5">%</text>
		<text x="267.5" y="35.5">5</text>
		<text style="text-anchor: end" x="305.5" y="35.5">F5</text>
		<rect height="51" rx="5" ry="5" style="fill: #cccccc; stroke: #000000; stroke-width: 1" width="51" x="312.5" y="0.5" />
		<rect height="40" rx="3" ry="3" style="fill: #fcfcfc" width="39" x="318.5" y="3.5" />
		<text x="319.5" y="16.5">^</text>
		<text x="319.5" y="35.5">6</text>
		<text style="text-anchor: end" x="357.5" y="35.5">F6</text>
		<rect height="51" rx="5" ry="5" style="fill: #cccccc; stroke: #000000; stroke-width: 1" width="51" x="364.5" y="0.5" />
		<rect height="40" rx="3" ry="3" style="fill: #fcfcfc" width="39" x="370.5" y="3.5" />
		<text x="371.5" y="16.5">&amp;</text>
		<text x="371.5" y="35.5">7</text>
		<text style="text-anchor: end" x="409.5" y="35.5">F7</text>
		<rect height="51" rx="5" ry="5" style="fill: #cccccc; stroke: #000000; stroke-width: 1" width="51" x="416.5" y="0.5" />
		<rect height="40" rx="3" ry="3" style="fill: #fcfcfc" width="39" x="422.5" y="3.5" />
		<text x="423.5" y="16.5">*</text>
		<text x="423.5" y="35.5">8</text>
		<text style="text-anchor: end" x="461.5" y="35.5">F8</text>
		<rect height="51" rx="5" ry="5" style="fill: #cccccc; stroke: #000000; stroke-width: 1" width="51" x="468.5" y="0.5" />
		<rect height="40" rx="3" ry="3" style="fill: #fcfcfc" width="39" x="474.5" y="3.5" />
		<text x="475.5" y="16.5">(</text>
		<text x="475.5" y="35.5">9</text>
		<text style="text-anchor: end" x="513.5" y="35.5">F9</text>
		<rect height="51" rx="5" ry="5" style="fill: #cccccc; stroke: #000000; stroke-width: 1" width="51" x="520.5" y="0.5" />
		<rect height="40" rx="3" ry="3" style="fill: #fcfcfc" width="39" x="526.5" y="3.5" />
		<text x="527.5" y="16.5">)</text>
		<text x="527.5" y="35.5">0</text>
		<text style="text-anchor: end" x="565.5" y="35.5">F10</text>
		<rect height="51" rx="5" ry="5" style="fill: #cccccc; stroke: #000000; stroke-width: 1" width="51" x="572.5" y="0.5" />
		<rect height="40" rx="3" ry="3" style="fill: #fcfcfc" width="39" x="578.5" y="3.5" />
		<text x="579.5" y="16.5">_</text>
		<text x="579.5" y="35.5">-</text>
		<text style="text-anchor: end" x="617.5" y="35.5">F11</text>
		<rect height="51" rx="5" ry="5" style="fill: #cccccc; stroke: #000000; stroke-width: 1" width="51" x="624.5" y="0.5" />
		<rect height="40" rx="3" ry="3" style="fill: #fcfcfc" width="39" x="630.5" y="3.5" />
		<text x="631.5" y="16.5">+</text>
		<text x="631.5" y="35.5">=</text>
		<text style="text-anchor: end" x="669.5" y="35.5">F12</text>
		<rect height="51" rx="5" ry="5" style="fill: #cccccc; stroke: #000000; stroke-width: 1" width="51" x="676.5" y="0.5" />
		<rect height="40" rx="3" ry="3" style="fill: #fcfcfc" width="39" x="682.5" y="3.5" />
		<text x="683.5" y="16.5">|</text>
		<text x="683.5" y="35.5">&#165;</text>
		<text style="text-anchor: end" x="721.5" y="35.5">Ins</text>
		<rect height="51" rx="5" ry="5" style="fill: #cccccc; stroke: #000000; stroke-width: 1" width="51" x="728.5" y="0.5" />
		<rect height="40" rx="3" ry="3" style="fill: #fcfcfc" width="39" x="734.5" y="3.5" />
		<text x="735.5" y="16.5">BS</text>
		<rect height="51" rx="5" ry="5" style="fill: #cccccc; stroke: #000000; stroke-width: 1" width="77" x="0.5" y="52.5" />
		<rect height="40" rx="3" ry="3" style="fill: #fcfcfc" width="65" x="6.5" y="55.5" />
		<text x="7.5" y="68.5">Tab</text>
		<rect height="51" rx="5" ry="5" style="fill: #cccccc; stroke: #000000; stroke-width: 1" width="51" x="78.5" y="52.5" />
		<rect height="40" rx="3" ry="3" style="fill: #fcfcfc" width="39" x="84.5" y="55.5" />
		<text x="85.5" y="68.5">Q</text>
		<text style="text-anchor: end" x="123.5" y="87.5">Quote</text>
		<rect height="51" rx="5" ry="5" style="fill: #cccccc; stroke: #000000; stroke-width: 1" width="51" x="130.5" y="52.5" />
		<rect height="40" rx="3" ry="3" style="fill: #fcfcfc" width="39" x="136.5" y="55.5" />
		<text x="137.5" y="68.5">W</text>
		<rect height="51" rx="5" ry="5" style="fill: #cccccc; stroke: #000000; stroke-width: 1" width="51" x="182.5" y="52.5" />
		<rect height="40" rx="3" ry="3" style="fill: #fcfcfc" width="39" x="188.5" y="55.5" />
		<text x="189.5" y="68.5">E</text>
		<text style="text-anchor: end" x="227.5" y="87.5">End</text>
		<rect height="51" rx="5" ry="5" style="fill: #cccccc; stroke: #000000; stroke-width: 1" width="51" x="234.5" y="52.5" />
		<rect height="40" rx="3" ry="3" style="fill: #fcfcfc" width="39" x="240.5" y="55.5" />
		<text x="241.5" y="68.5">R</text>
		<rect height="51" rx="5" ry="5" style="fill: #cccccc; stroke: #000000; stroke-width: 1" width="51" x="286.5" y="52.5" />
		<rect height="40" rx="3" ry="3" style="fill: #fcfcfc" width="39" x="292.5" y="55.5" />
		<text x="293.5" y="68.5">T</text>
		<rect height="51" rx="5" ry="5" style="fill: #cccccc; stroke: #000000; stroke-width: 1" width="51" x="338.5" y="52.5" />
		<rect height="40" rx="3" ry="3" style="fill: #fcfcfc" width="39" x="344.5" y="55.5" />
		<text x="345.5" y="68.5">Y</text>
		<rect height="51" rx="5" ry="5" style="fill: #cccccc; stroke: #000000; stroke-width: 1" width="51" x="390.5" y="52.5" />
		<rect height="40" rx="3" ry="3" style="fill: #fcfcfc" width="39" x="396.5" y="55.5" />
		<text x="397.5" y="68.5">U</text>
		<rect height="51" rx="5" ry="5" style="fill: #cccccc; stroke: #000000; stroke-width: 1" width="51" x="442.5" y="52.5" />
		<rect height="40" rx="3" ry="3" style="fill: #fcfcfc" width="39" x="448.5" y="55.5" />
		<text x="449.5" y="68.5">I</text>
		<rect height="51" rx="5" ry="5" style="fill: #cccccc; stroke: #000000; stroke-width: 1" width="51" x="494.5" y="52.5" />
		<rect height="40" rx="3" ry="3" style="fill: #fcfcfc" width="39" x="500.5" y="55.5" />
		<text x="501.5" y="68.5">O</text>
		<rect height="51" rx="5" ry="5" style="fill: #cccccc; stroke: #000000; stroke-width: 1" width="51" x="546.5" y="52.5" />
		<rect height="40" rx="3" ry="3" style="fill: #fcfcfc" width="39" x="552.5" y="55.5" />
		<text x="553.5" y="68.5">P</text>
		<text style="text-anchor: end" x="591.5" y="87.5">↑</text>
		<rect height="51" rx="5" ry="5" style="fill: #cccccc; stroke: #000000; stroke-width: 1" width="51" x="598.5" y="52.5" />
		<rect height="40" rx="3" ry="3" style="fill: #fcfcfc" width="39" x="604.5" y="55.5" />
		<text x="605.5" y="68.5">{</text>
		<text x="605.5" y="87.5">[</text>
		<text style="text-anchor: end" x="643.5" y="87.5">PgUp</text>
		<rect height="51" rx="5" ry="5" style="fill: #cccccc; stroke: #000000; stroke-width: 1" width="51" x="650.5" y="52.5" />
		<rect height="40" rx="3" ry="3" style="fill: #fcfcfc" width="39" x="656.5" y="55.5" />
		<text x="657.5" y="68.5">}</text>
		<text x="657.5" y="87.5">]</text>
		<text style="text-anchor: end" x="695.5" y="87.5">PgDn</text>
		<rect height="103" rx="5" ry="5" style="fill: #cccccc; stroke: #000000; stroke-width: 1" width="64" x="715.5" y="52.5" />
		<rect height="51" rx="5" ry="5" style="fill: #cccccc; stroke: #000000; stroke-width: 1" width="77" x="702.5" y="52.5" />
		<rect height="102" rx="5" ry="5" style="fill: #cccccc; stroke: none; stroke-width: 1" width="63" x="716" y="53" />
		<rect height="92" rx="3" ry="3" style="fill: #fcfcfc" width="52" x="721.5" y="55.5" />
		<rect height="40" rx="3" ry="3" style="fill: #fcfcfc" width="65" x="708.5" y="55.5" />
		<text x="722.5" y="68.5">Enter</text>
		<rect height="51" rx="5" ry="5" style="fill: #cccccc; stroke: #000000; stroke-width: 1" width="90" x="0.5" y="104.5" />
		<rect height="40" rx="3" ry="3" style="fill: #fcfcfc" width="78" x="6.5" y="107.5" />
		<text x="7.5" y="120.5">Caps Lock</text>
		<text x="7.5" y="139.5">英数</text>
		<rect height="51" rx="5" ry="5" style="fill: #cccccc; stroke: #000000; stroke-width: 1" width="51" x="91.5" y="104.5" />
		<rect height="40" rx="3" ry="3" style="fill: #fcfcfc" width="39" x="97.5" y="107.5" />
		<text x="98.5" y="120.5">A</text>
		<text style="text-anchor: end" x="136.5" y="139.5">Home</text>
		<rect height="51" rx="5" ry="5" style="fill: #cccccc; stroke: #000000; stroke-width: 1" width="51" x="143.5" y="104.5" />
		<rect height="40" rx="3" ry="3" style="fill: #fcfcfc" width="39" x="149.5" y="107.5" />
		<text x="150.5" y="120.5">S</text>
		<rect height="51" rx="5" ry="5" style="fill: #cccccc; stroke: #000000; stroke-width: 1" width="51" x="195.5" y="104.5" />
		<rect height="40" rx="3" ry="3" style="fill: #fcfcfc" width="39" x="201.5" y="107.5" />
		<text x="202.5" y="120.5">D</text>
		<text style="text-anchor: end" x="240.5" y="139.5">Del</text>
		<rect height="51" rx="5" ry="5" style="fill: #cccccc; stroke: #000000; stroke-width: 1" width="51" x="247.5" y="104.5" />
		<rect height="40" rx="3" ry="3" style="fill: #fcfcfc" width="39" x="253.5" y="107.5" />
		<text x="254.5" y="120.5">F</text>
		<text style="text-anchor: end" x="292.5" y="139.5">→</text>
		<rect height="51" rx="5" ry="5" style="fill: #cccccc; stroke: #000000; stroke-width: 1" width="51" x="299.5" y="104.5" />
		<rect height="40" rx="3" ry="3" style="fill: #fcfcfc" width="39" x="305.5" y="107.5" />
		<text x="306.5" y="120.5">G</text>
		<rect height="51" rx="5" ry="5" style="fill: #cccccc; stroke: #000000; stroke-width: 1" width="51" x="351.5" y="104.5" />
		<rect height="40" rx="3" ry="3" style="fill: #fcfcfc" width="39" x="357.5" y="107.5" />
		<text x="358.5" y="120.5">H</text>
		<text style="text-anchor: end" x="396.5" y="139.5">BS</text>
		<rect height="51" rx="5" ry="5" style="fill: #cccccc; stroke: #000000; stroke-width: 1" width="51" x="403.5" y="104.5" />
		<rect height="40" rx="3" ry="3" style="fill: #fcfcfc" width="39" x="409.5" y="107.5" />
		<text x="410.5" y="120.5">J</text>
		<rect height="51" rx="5" ry="5" style="fill: #cccccc; stroke: #000000; stroke-width: 1" width="51" x="455.5" y="104.5" />
		<rect height="40" rx="3" ry="3" style="fill: #fcfcfc" width="39" x="461.5" y="107.5" />
		<text x="462.5" y="120.5">K</text>
		<rect height="51" rx="5" ry="5" style="fill: #cccccc; stroke: #000000; stroke-width: 1" width="51" x="507.5" y="104.5" />
		<rect height="40" rx="3" ry="3" style="fill: #fcfcfc" width="39" x="513.5" y="107.5" />
		<text x="514.5" y="120.5">L</text>
		<rect height="51" rx="5" ry="5" style="fill: #cccccc; stroke: #000000; stroke-width: 1" width="51" x="559.5" y="104.5" />
		<rect height="40" rx="3" ry="3" style="fill: #fcfcfc" width="39" x="565.5" y="107.5" />
		<text x="566.5" y="120.5">:</text>
		<text x="566.5" y="139.5">;</text>
		<text style="text-anchor: end" x="604.5" y="139.5">^↑</text>
		<rect height="51" rx="5" ry="5" style="fill: #cccccc; stroke: #000000; stroke-width: 1" width="51" x="611.5" y="104.5" />
		<rect height="40" rx="3" ry="3" style="fill: #fcfcfc" width="39" x="617.5" y="107.5" />
		<text x="618.5" y="120.5">&quot;</text>
		<text x="618.5" y="139.5">&apos;</text>
		<text style="text-anchor: end" x="656.5" y="139.5">^↓</text>
		<rect height="51" rx="5" ry="5" style="fill: #cccccc; stroke: #000000; stroke-width: 1" width="51" x="663.5" y="104.5" />
		<rect height="40" rx="3" ry="3" style="fill: #fcfcfc" width="39" x="669.5" y="107.5" />
		<text x="670.5" y="120.5">|</text>
		<text x="670.5" y="139.5">\</text>
		<text style="text-anchor: end" x="708.5" y="139.5">Ins</text>
		<rect height="51" rx="5" ry="5" style="fill: #cccccc; stroke: #000000; stroke-width: 1" width="116" x="0.5" y="156.5" />
		<rect height="40" rx="3" ry="3" style="fill: #fcfcfc" width="104" x="6.5" y="159.5" />
		<text x="7.5" y="172.5">Shift</text>
		<rect height="51" rx="5" ry="5" style="fill: #cccccc; stroke: #000000; stroke-width: 1" width="51" x="117.5" y="156.5" />
		<rect height="40" rx="3" ry="3" style="fill: #fcfcfc" width="39" x="123.5" y="159.5" />
		<text x="124.5" y="172.5">Z</text>
		<rect height="51" rx="5" ry="5" style="fill: #cccccc; stroke: #000000; stroke-width: 1" width="51" x="169.5" y="156.5" />
		<rect height="40" rx="3" ry="3" style="fill: #fcfcfc" width="39" x="175.5" y="159.5" />
		<text x="176.5" y="172.5">X</text>
		<rect height="51" rx="5" ry="5" style="fill: #cccccc; stroke: #000000; stroke-width: 1" width="51" x="221.5" y="156.5" />
		<rect height="40" rx="3" ry="3" style="fill: #fcfcfc" width="39" x="227.5" y="159.5" />
		<text x="228.5" y="172.5">C</text>
		<rect height="51" rx="5" ry="5" style="fill: #cccccc; stroke: #000000; stroke-width: 1" width="51" x="273.5" y="156.5" />
		<rect height="40" rx="3" ry="3" style="fill: #fcfcfc" width="39" x="279.5" y="159.5" />
		<text x="280.5" y="172.5">V</text>
		<rect height="51" rx="5" ry="5" style="fill: #cccccc; stroke: #000000; stroke-width: 1" width="51" x="325.5" y="156.5" />
		<rect height="40" rx="3" ry="3" style="fill: #fcfcfc" width="39" x="331.5" y="159.5" />
		<text x="332.5" y="172.5">B</text>
		<text style="text-anchor: end" x="370.5" y="191.5">←</text>
		<rect height="51" rx="5" ry="5" style="fill: #cccccc; stroke: #000000; stroke-width: 1" width="51" x="377.5" y="156.5" />
		<rect height="40" rx="3" ry="3" style="fill: #fcfcfc" width="39" x="383.5" y="159.5" />
		<text x="384.5" y="172.5">N</text>
		<text style="text-anchor: end" x="422.5" y="191.5">↓</text>
		<rect height="51" rx="5" ry="5" style="fill: #cccccc; stroke: #000000; stroke-width: 1" width="51" x="429.5" y="156.5" />
		<rect height="40" rx="3" ry="3" style="fill: #fcfcfc" width="39" x="435.5" y="159.5" />
		<text x="436.5" y="172.5">M</text>
		<text style="text-anchor: end" x="474.5" y="191.5">Enter</text>
		<rect height="51" rx="5" ry="5" style="fill: #cccccc; stroke: #000000; stroke-width: 1" width="51" x="481.5" y="156.5" />
		<rect height="40" rx="3" ry="3" style="fill: #fcfcfc" width="39" x="487.5" y="159.5" />
		<text x="488.5" y="172.5">&lt;</text>
		<text x="488.5" y="191.5">,</text>
		<text style="text-anchor: end" x="526.5" y="191.5">^Home</text>
		<rect height="51" rx="5" ry="5" style="fill: #cccccc; stroke: #000000; stroke-width: 1" width="51" x="533.5" y="156.5" />
		<rect height="40" rx="3" ry="3" style="fill: #fcfcfc" width="39" x="539.5" y="159.5" />
		<text x="540.5" y="172.5">&gt;</text>
		<text x="540.5" y="191.5">.</text>
		<text style="text-anchor: end" x="578.5" y="191.5">^End</text>
		<rect height="51" rx="5" ry="5" style="fill: #cccccc; stroke: #000000; stroke-width: 1" width="51" x="585.5" y="156.5" />
		<rect height="40" rx="3" ry="3" style="fill: #fcfcfc" width="39" x="591.5" y="159.5" />
		<text x="592.5" y="172.5">?</text>
		<text x="592.5" y="191.5">/</text>
		<text style="text-anchor: end" x="630.5" y="191.5">Undo</text>
		<rect height="51" rx="5" ry="5" style="fill: #cccccc; stroke: #000000; stroke-width: 1" width="51" x="637.5" y="156.5" />
		<rect height="40" rx="3" ry="3" style="fill: #fcfcfc" width="39" x="643.5" y="159.5" />
		<text x="644.5" y="172.5">~</text>
		<text x="644.5" y="191.5">`</text>
		<rect height="51" rx="5" ry="5" style="fill: #cccccc; stroke: #000000; stroke-width: 1" width="90" x="689.5" y="156.5" />
		<rect height="40" rx="3" ry="3" style="fill: #fcfcfc" width="78" x="695.5" y="159.5" />
		<text x="696.5" y="172.5">Shift</text>
		<rect height="51" rx="5" ry="5" style="fill: #cccccc; stroke: #000000; stroke-width: 1" width="64" x="0.5" y="208.5" />
		<rect height="40" rx="3" ry="3" style="fill: #fcfcfc" width="52" x="6.5" y="211.5" />
		<text x="7.5" y="224.5">Ctrl</text>
		<rect height="51" rx="5" ry="5" style="fill: #cccccc; stroke: #000000; stroke-width: 1" width="51" x="65.5" y="208.5" />
		<rect height="40" rx="3" ry="3" style="fill: #fcfcfc" width="39" x="71.5" y="211.5" />
		<text x="72.5" y="224.5">Fn</text>
		<rect height="51" rx="5" ry="5" style="fill: #cccccc; stroke: #000000; stroke-width: 1" width="51" x="117.5" y="208.5" />
		<rect height="40" rx="3" ry="3" style="fill: #fcfcfc" width="39" x="123.5" y="211.5" />
		<text x="124.5" y="224.5">Win</text>
		<rect height="51" rx="5" ry="5" style="fill: #cccccc; stroke: #000000; stroke-width: 1" width="51" x="169.5" y="208.5" />
		<rect height="40" rx="3" ry="3" style="fill: #fcfcfc" width="39" x="175.5" y="211.5" />
		<text x="176.5" y="224.5">Alt</text>
		<rect height="51" rx="5" ry="5" style="fill: #cccccc; stroke: #000000; stroke-width: 1" width="64" x="221.5" y="208.5" />
		<rect height="40" rx="3" ry="3" style="fill: #fcfcfc" width="52" x="227.5" y="211.5" />
		<text x="228.5" y="224.5">無変換</text>
		<rect height="51" rx="5" ry="5" style="fill: #cccccc; stroke: #000000; stroke-width: 1" width="129" x="286.5" y="208.5" />
		<rect height="40" rx="3" ry="3" style="fill: #fcfcfc" width="117" x="292.5" y="211.5" />
		<rect height="51" rx="5" ry="5" style="fill: #cccccc; stroke: #000000; stroke-width: 1" width="64" x="416.5" y="208.5" />
		<rect height="40" rx="3" ry="3" style="fill: #fcfcfc" width="52" x="422.5" y="211.5" />
		<text x="423.5" y="224.5">変換</text>
		<rect height="51" rx="5" ry="5" style="fill: #cccccc; stroke: #000000; stroke-width: 1" width="51" x="481.5" y="208.5" />
		<rect height="40" rx="3" ry="3" style="fill: #fcfcfc" width="39" x="487.5" y="211.5" />
		<text x="488.5" y="224.5">半/全</text>
		<rect height="51" rx="5" ry="5" style="fill: #cccccc; stroke: #000000; stroke-width: 1" width="51" x="533.5" y="208.5" />
		<rect height="40" rx="3" ry="3" style="fill: #fcfcfc" width="39" x="539.5" y="211.5" />
		<text x="540.5" y="224.5">Menu</text>
		<rect height="51" rx="5" ry="5" style="fill: #cccccc; stroke: #000000; stroke-width: 1" width="51" x="585.5" y="208.5" />
		<rect height="40" rx="3" ry="3" style="fill: #fcfcfc" width="39" x="591.5" y="211.5" />
		<text x="592.5" y="224.5">Ctrl</text>
	</g>
	<!--
	Generated using the Perl SVG Module V2.84
	by Ronan Oger
	Info: http://www.roitsystems.com/
	-->
</svg>
